<?xml version="1.0" encoding="UTF-8"?>
<svg xmlns="http://www.w3.org/2000/svg" fill="gray" xmlns:xlink="http://www.w3.org/1999/xlink" width="24px" height="24px" viewBox="0 0 24 23" version="1.1">
<g id="surface1">
<path style=" stroke:none;fill-rule:nonzero;fill:gray;fill-opacity:1;" d="M 6.5 3.023438 C 6.402344 3.195312 6.183594 3.554688 6.015625 3.832031 C 5.851562 4.101562 5.710938 4.34375 5.710938 4.359375 C 5.710938 4.378906 7.117188 5.742188 8.832031 7.382812 L 11.953125 10.371094 L 15.097656 7.359375 C 16.824219 5.703125 18.238281 4.332031 18.238281 4.320312 C 18.238281 4.304688 18.027344 3.941406 17.769531 3.515625 L 17.292969 2.738281 L 11.992188 2.722656 L 6.679688 2.714844 Z M 6.5 3.023438 "/>
<path style=" stroke:none;fill-rule:nonzero;fill:gray;fill-opacity:1;" d="M 16.113281 8.59375 C 14.488281 10.15625 13.152344 11.453125 13.152344 11.480469 C 13.152344 11.535156 19.09375 17.226562 19.125 17.199219 C 19.136719 17.1875 19.261719 16.992188 19.398438 16.761719 C 19.53125 16.535156 19.886719 15.949219 20.183594 15.457031 C 20.480469 14.964844 21.140625 13.867188 21.644531 13.027344 C 22.539062 11.542969 22.566406 11.496094 22.496094 11.371094 C 22.464844 11.300781 21.910156 10.386719 21.28125 9.339844 C 20.648438 8.289062 19.90625 7.050781 19.628906 6.59375 C 19.355469 6.128906 19.117188 5.75 19.105469 5.75 C 19.089844 5.75 17.746094 7.027344 16.113281 8.59375 Z M 16.113281 8.59375 "/>
<path style=" stroke:none;fill-rule:nonzero;fill:gray;fill-opacity:1;" d="M 4.601562 6.171875 C 4.492188 6.355469 4.292969 6.691406 4.152344 6.921875 C 2.605469 9.472656 1.441406 11.429688 1.441406 11.492188 C 1.441406 11.527344 1.757812 12.078125 2.140625 12.714844 C 2.523438 13.347656 3.28125 14.609375 3.832031 15.515625 C 4.371094 16.417969 4.828125 17.15625 4.84375 17.15625 C 4.859375 17.15625 6.203125 15.882812 7.824219 14.328125 L 10.777344 11.5 L 7.824219 8.671875 C 6.203125 7.117188 4.859375 5.84375 4.839844 5.84375 C 4.820312 5.84375 4.714844 5.992188 4.601562 6.171875 Z M 4.601562 6.171875 "/>
<path style=" stroke:none;fill-rule:nonzero;fill:gray;fill-opacity:1;" d="M 8.792969 15.609375 C 7.097656 17.234375 5.710938 18.585938 5.710938 18.601562 C 5.710938 18.644531 6.496094 19.964844 6.636719 20.160156 L 6.726562 20.285156 L 12.007812 20.277344 L 17.289062 20.261719 L 17.773438 19.46875 L 18.253906 18.667969 L 15.113281 15.660156 C 13.386719 14.003906 11.957031 12.648438 11.929688 12.648438 C 11.898438 12.648438 10.492188 13.980469 8.792969 15.609375 Z M 8.792969 15.609375 "/>
</g>
</svg>
